PathFileType	4	(X/Y/Z)	E:\Qualisys_Data\Carbon_Farble_Plate\Data\Amateur_Runner\S2\T3\S2T3V23_c3d.trc
DataRate	CameraRate	NumFrames	NumMarkers	Units	OrigDataRate	OrigDataStartFrame	OrigNumFrames
200.000000	200.000000	5	39	mm	200.000000	118	317
Frame#	Time	LSHO			RSHO			LICST			RICST			LASIS			LHEEL			RASIS			LTROC			RTROC			SACR			LTH1			LSK4			LTH2			LTH3			RHM5			LSK2			LTH4			RTH1			LTOE			RTH2			RTH3			RTH4			LLEP			RLEP			LSK1			LSK3			RSK1			LHM5			RSK2			LFT1			RSK3			RSK4			LLME			RLME			RTOE			RHEEL			RFT1			RFT2			LFT2			
		X1	Y1	Z1	X2	Y2	Z2	X3	Y3	Z3	X4	Y4	Z4	X5	Y5	Z5	X6	Y6	Z6	X7	Y7	Z7	X8	Y8	Z8	X9	Y9	Z9	X10	Y10	Z10	X11	Y11	Z11	X12	Y12	Z12	X13	Y13	Z13	X14	Y14	Z14	X15	Y15	Z15	X16	Y16	Z16	X17	Y17	Z17	X18	Y18	Z18	X19	Y19	Z19	X20	Y20	Z20	X21	Y21	Z21	X22	Y22	Z22	X23	Y23	Z23	X24	Y24	Z24	X25	Y25	Z25	X26	Y26	Z26	X27	Y27	Z27	X28	Y28	Z28	X29	Y29	Z29	X30	Y30	Z30	X31	Y31	Z31	X32	Y32	Z32	X33	Y33	Z33	X34	Y34	Z34	X35	Y35	Z35	X36	Y36	Z36	X37	Y37	Z37	X38	Y38	Z38	X39	Y39	Z39	

119	0.59	-854.5899047851562	1411.906372070312	-450.0376586914062	-849.555908203125	1419.039794921875	-128.1458435058594	-933.8746948242188	964.9351806640624	-406.7577819824219	-893.456298828125	956.3951416015624	-103.1342086791992	-872.194091796875	918.8123779296876	-396.8907165527344	-1214.1513671875	119.1894226074219	-250.5513458251953	-834.7921142578125	912.5029907226562	-134.5281524658203	-1003.186889648438	848.4609375	-390.5447692871094	-971.3421630859376	851.7838745117188	-94.05161285400392	-999.0599365234376	1006.306213378906	-245.9896087646484	-883.7188110351562	597.4661254882812	-401.0877990722656	-1081.721801757812	279.1788024902344	-349.0710754394531	-964.3181762695312	597.6444091796875	-394.720458984375	-883.060546875	496.7062377929688	-371.4767456054688	-1131.581176757812	311.0146179199219	-101.8510131835938	-1028.571411132812	361.1727905273438	-371.795654296875	-966.58984375	501.4275207519531	-364.8950500488281	-728.2190551757812	650.8704833984375	-82.26605224609375	-976.5195922851562	69.18758392333984	-273.63623046875	-801.4161987304688	620.2072143554688	-70.87142181396484	-692.7000122070312	555.8740234375	-95.82850646972656	-769.7130737304688	528.6984252929688	-88.34922790527344	-927.4983520507812	454.64599609375	-367.41064453125	-735.0944213867188	512.362060546875	-84.09370422363281	-961.7742309570312	320.6756286621094	-357.692626953125	-1015.480163574219	237.9593505859375	-338.9008178710938	-816.3895263671875	444.6253356933594	-95.90939331054688	-1040.864990234375	62.17430114746094	-333.4688415527344	-829.2283935546875	525.7872924804688	-85.53450012207031	-1207.3564453125	92.56391143798828	-221.8196563720703	-916.8882446289062	429.4818420410156	-105.8406677246094	-925.886474609375	509.0448608398438	-102.2624130249023	-1144.955810546875	121.3287658691406	-308.0357971191406	-1103.260620117188	440.2134704589844	-132.5743255615234	-1103.87890625	246.4072875976562	-155.1749267578125	-1129.266845703125	493.9143981933594	-193.0156097412109	-1152.640869140625	477.0648193359375	-222.7111511230469	-1156.103881835938	493.70703125	-173.0451202392578	-1217.918701171875	88.44768524169922	-272.2019348144531
120	0.595	-832.509521484375	1416.347900390625	-448.6933288574219	-831.7684326171875	1422.98876953125	-127.8883590698242	-911.4970092773438	968.3107299804688	-408.384521484375	-874.0399780273438	961.0547485351562	-103.9124221801758	-851.59130859375	921.55126953125	-396.9005432128906	-1211.927124023438	124.0220184326172	-251.5606689453125	-815.1884155273438	916.6649169921876	-135.0290985107422	-983.9053344726562	851.6591186523438	-390.9937133789062	-951.4959716796876	856.6968994140625	-93.9761962890625	-979.075927734375	1009.734985351562	-247.5982971191406	-872.331787109375	598.6421508789062	-400.8926696777344	-1078.144287109375	284.8425598144531	-349.5629577636719	-953.4083251953124	602.3587036132812	-395.1489868164062	-875.72509765625	498.4042663574219	-370.7405395507812	-1094.382446289062	300.3754577636719	-101.3275451660156	-1023.247680664062	365.4740905761719	-372.2608032226562	-958.8292236328124	506.1562805175781	-365.0172424316406	-705.0674438476562	659.9913330078125	-83.81724548339844	-976.2289428710938	69.08427429199219	-273.5101623535156	-777.5095825195312	627.4290771484375	-72.68446350097656	-666.8895874023438	566.0917358398438	-97.7578353881836	-742.7319946289062	535.5048828125	-89.16130065917969	-920.8367309570312	457.8810729980469	-367.0165405273438	-708.3717651367188	521.2994995117188	-85.88507080078125	-957.2877197265624	324.0550537109375	-357.809326171875	-1011.989929199219	242.2895812988281	-339.5464172363281	-786.7889404296875	449.472412109375	-97.27227783203124	-1040.071411132812	63.22459030151367	-333.5749816894531	-803.169189453125	528.8948974609375	-86.53002166748047	-1205.728393554688	97.50975036621094	-222.2419891357422	-886.5720825195312	429.5137023925781	-106.6428833007812	-899.254150390625	508.2940979003906	-102.0601272583008	-1142.51416015625	126.2060928344727	-309.0987243652344	-1074.263916015625	431.10693359375	-132.1273803710938	-1062.811157226562	237.3123626708984	-155.1578216552734	-1106.050048828125	484.1253662109375	-193.8335418701172	-1125.718017578125	464.5032958984375	-222.1696166992188	-1130.425415039062	480.86962890625	-172.3440704345703	-1216.27294921875	93.44422149658205	-272.5782165527344
121	0.6	-810.70654296875	1421.1513671875	-447.8652038574219	-813.768310546875	1427.128295898438	-127.5170745849609	-889.83251953125	971.4052124023438	-408.5938720703125	-854.5078125	966.2442016601562	-104.6608657836914	-830.6972045898438	924.2081909179688	-397.1922607421875	-1208.799438476562	130.3999481201172	-253.9051818847656	-795.6314086914062	921.9244384765624	-135.2562866210938	-964.1974487304688	854.8805541992188	-390.7867736816406	-931.3419189453124	861.9707641601562	-93.49537658691406	-958.8846435546876	1014.002990722656	-249.1452178955078	-860.9403686523438	602.4985961914062	-401.4261779785156	-1073.5615234375	290.4016418457031	-350.1370544433594	-941.267822265625	608.5250854492188	-395.340576171875	-866.7308959960938	502.82421875	-370.0127563476562	-1057.139526367188	289.4222717285156	-101.31005859375	-1017.509399414062	370.4749450683594	-372.5971374511719	-949.5394287109376	512.680419921875	-366.5602722167969	-682.4702758789062	668.8024291992188	-84.91096496582031	-975.5309448242188	69.07857513427734	-273.3110046386719	-754.1575927734375	634.4715576171875	-74.21820831298828	-642.1785888671875	575.973876953125	-99.85117340087892	-716.9398193359375	543.36474609375	-90.5110321044922	-913.8928833007812	462.4965515136719	-367.2694702148438	-681.5299682617188	529.5848999023438	-88.38236999511719	-952.4247436523438	328.2537841796875	-358.5232849121094	-1008.025024414062	246.962158203125	-340.2830200195312	-757.7134399414062	453.7645874023438	-98.78609466552734	-1039.23876953125	63.93917846679688	-333.6813049316406	-777.7857666015625	531.9706420898438	-89.28683471679688	-1203.25244140625	102.4145660400391	-222.8873901367188	-856.5989379882812	429.2302551269531	-107.2418365478516	-872.9680786132812	507.4201965332031	-102.0657196044922	-1139.563232421875	131.2461090087891	-309.8358764648438	-1044.749633789062	421.1351013183594	-132.2912902832031	-1021.12890625	228.7701568603516	-154.5138397216797	-1080.192016601562	472.5069274902344	-193.2108764648438	-1098.375	451.8126220703125	-221.9669647216797	-1104.133544921875	467.7303161621094	-172.371826171875	-1214.08447265625	98.27811431884766	-273.5625915527344
122	0.605	-788.7443237304688	1425.714111328125	-446.2250366210938	-795.8897705078125	1431.256713867188	-127.1561737060547	-868.3455200195312	974.9148559570312	-409.3753967285156	-834.4282836914062	971.4384155273438	-105.6238098144531	-809.743408203125	926.8463745117188	-396.9142761230469	-1205.541381835938	136.4435729980469	-254.8633880615234	-775.8984375	926.8031005859376	-135.5594635009766	-944.5450439453124	858.492431640625	-390.2283020019531	-910.7046508789062	867.6737060546875	-92.99198150634766	-938.7977905273438	1017.725769042969	-251.0731506347656	-848.6876831054688	607.2145385742188	-400.8053588867188	-1068.808959960938	296.1542663574219	-351.0674743652344	-928.6717529296876	614.3758544921875	-395.0440368652344	-856.5840454101562	507.0318908691406	-369.542724609375	-1019.250122070312	278.7210388183594	-100.7872161865234	-1012.123718261719	376.22998046875	-373.3596496582031	-939.6497802734376	518.4642333984375	-366.7923278808594	-659.9808349609375	677.3173828125	-86.56291198730469	-974.6292724609376	69.31364440917969	-273.0485534667969	-730.7399291992188	641.4977416992188	-76.19940948486328	-617.8750610351562	585.6239624023438	-101.4738922119141	-691.9378051757812	551.6130981445312	-92.31167602539062	-906.0118408203124	467.5141296386719	-367.4969177246094	-656.0526733398438	538.4940795898438	-89.7349853515625	-947.1209106445312	332.3037719726562	-358.7092895507812	-1004.206359863281	251.8444061279297	-341.2649230957031	-729.2509155273438	458.6394348144531	-99.23033905029295	-1037.959106445312	65.01593780517578	-333.8191528320312	-753.8995361328125	535.4984130859375	-89.03511810302734	-1200.883056640625	108.1919174194336	-223.562255859375	-826.8822021484375	429.029052734375	-108.0974578857422	-847.45751953125	506.0771789550781	-102.4319686889648	-1135.587158203125	136.5588684082031	-311.1424255371094	-1014.713134765625	411.2624206542969	-131.7799682617188	-980.024658203125	220.7504272460938	-154.3948364257812	-1053.514038085938	460.2580871582031	-193.2137451171875	-1070.58349609375	438.4002380371094	-221.4932098388672	-1077.339965820312	453.6229553222656	-172.5918731689453	-1211.478271484375	104.2923889160156	-274.4277954101562
123	0.61	-766.9714965820312	1430.947998046875	-444.8343505859375	-778.0738525390625	1435.795043945312	-127.0415878295898	-846.1207275390625	978.1172485351562	-409.7927551269531	-814.70166015625	976.8583984375	-106.076904296875	-788.752197265625	929.7928466796876	-396.9526062011719	-1201.671020507812	143.0413360595703	-255.9146270751953	-755.9240112304688	932.1644897460938	-135.9441833496094	-925.0394897460938	862.5682373046875	-390.1602172851562	-889.9783935546875	873.4967651367188	-92.3816146850586	-918.3309936523438	1022.029907226562	-252.5065002441406	-835.08349609375	610.3677368164062	-399.3390197753906	-1063.321044921875	302.759033203125	-352.0147705078125	-915.9940185546876	620.649658203125	-395.4377746582031	-846.0299682617188	510.93603515625	-369.6406555175781	-980.179443359375	268.8121948242188	-100.438346862793	-1006.477172851562	382.3708190917969	-373.7981567382812	-936.4833374023438	529.8236694335938	-368.7122497558594	-638.0413208007812	685.7066650390625	-87.3768081665039	-973.279052734375	69.70026397705078	-273.5853881835938	-708.2130126953125	648.154541015625	-77.53895568847656	-593.9076538085938	594.8530883789062	-103.3576431274414	-667.2932739257812	559.2566528320312	-93.94221496582033	-898.07470703125	472.8347473144531	-367.5762329101562	-631.5947875976562	546.8837890625	-91.4774932861328	-941.8394775390624	338.9903259277344	-360.5791625976562	-999.3148803710938	258.4856262207031	-342.7518005371094	-701.5047607421875	463.196533203125	-100.1244125366211	-1037.302124023438	66.2700424194336	-333.8615417480469	-729.2384643554688	538.355224609375	-91.43334197998048	-1197.801025390625	114.9130630493164	-224.9817504882812	-797.416015625	428.5991516113281	-108.351432800293	-821.87353515625	504.531982421875	-102.8712387084961	-1131.1669921875	142.1349029541016	-313.0118713378906	-984.6340942382812	401.0476989746094	-131.6563415527344	-937.8152465820312	212.8694763183594	-154.2533264160156	-1025.512939453125	446.4657592773438	-192.8831481933594	-1042.347412109375	424.500244140625	-221.3219146728516	-1049.746337890625	439.2064819335938	-172.5196533203125	-1208.25048828125	111.2550811767578	-275.2203674316406
